HIERARCHY
ROOT Spine
{
    OFFSET 0.0 0.0 -0.0
    CHANNELS 6 Xposition Yposition Zposition Zrotation Xrotation Yrotation
    JOINT ShoulderCenter
    {
        OFFSET 0.0 31.689437866210938 0.0
        CHANNELS 3 Zrotation Xrotation Yrotation
        JOINT LeftShoulder
        {
            OFFSET 16.907520294189453 0.0 0.0
            CHANNELS 3 Zrotation Xrotation Yrotation
            JOINT LeftElbow
            {
                OFFSET 30.428173065185547 0.0 0.0
                CHANNELS 3 Zrotation Xrotation Yrotation
                JOINT LeftHand
                {
                    OFFSET 28.205726623535156 0.0 0.0
                    CHANNELS 3 Zrotation Xrotation Yrotation
                    End Site
                    {
                        OFFSET 11.282289505004883 0.0 0.0
                    }
                }
            }
        }
        JOINT RightShoulder
        {
            OFFSET -16.907520294189453 0.0 0.0
            CHANNELS 3 Zrotation Xrotation Yrotation
            JOINT RightElbow
            {
                OFFSET -30.428173065185547 0.0 0.0
                CHANNELS 3 Zrotation Xrotation Yrotation
                JOINT RightHand
                {
                    OFFSET -28.205726623535156 0.0 0.0
                    CHANNELS 3 Zrotation Xrotation Yrotation
                    End Site
                    {
                        OFFSET -11.282289505004883 0.0 0.0
                    }
                }
            }
        }
        End Site
        {
            OFFSET 0.0 12.675775527954102 0.0
        }
    }
    JOINT LeftHip
    {
        OFFSET 18.165526381847833 -18.165526381847833 0.0
        CHANNELS 3 Zrotation Xrotation Yrotation
        JOINT LeftKnee
        {
            OFFSET 0.0 -34.99939727783203 0.0
            CHANNELS 3 Zrotation Xrotation Yrotation
            JOINT LeftFoot
            {
                OFFSET 0.0 -45.112571716308594 0.0
                CHANNELS 3 Zrotation Xrotation Yrotation
                End Site
                {
                    OFFSET 0.0 0.0 18.045028686523438
                }
            }
        }
    }
    JOINT RightHip
    {
        OFFSET -18.165526381847833 -18.165526381847833 0.0
        CHANNELS 3 Zrotation Xrotation Yrotation
        JOINT RightKnee
        {
            OFFSET 0.0 -34.99939727783203 0.0
            CHANNELS 3 Zrotation Xrotation Yrotation
            JOINT RightFoot
            {
                OFFSET 0.0 -45.112571716308594 0.0
                CHANNELS 3 Zrotation Xrotation Yrotation
                End Site
                {
                    OFFSET 0.0 0.0 18.045028686523438
                }
            }
        }
    }
}
MOTION
Frames: 10
Frame Time: 0.03333333333333333
33.19999694824219 -0.0 160.8000030517578 -5.782393814317739 -0.9018914016073627 -89.23393231214735 1.06109260181556e-07 -8.883796976810632e-08 1.7473401636677257 94.98536041222242 -9.038742229174368 171.10882503968244 3.2994902026561415e-06 -3.467139511978699e-07 30.999308610360316 -3.180554681463516e-15 -8.827812596100317e-32 3.180554681463516e-15 -96.79442164625968 -11.763650821616723 -173.97430204925334 1.2419138738907775e-06 -1.1233393228367189e-06 -26.45792930495067 0.0 0.0 -6.361109362927033e-15 -5.730910730290477 4.495334544558708 -20.18046758612761 3.3763740843763914 -5.754231128405197 8.499231019814347 1.5902773407317582e-15 7.951386703658792e-16 4.621743521501672e-15 8.379652751623068 -6.318770692155625 5.61050808541926 -9.424962758966632 14.964386738933145 23.192842769734053 -9.939233379573487e-17 2.981770013872047e-16 -6.708982531212106e-15
33.099998474121094 -0.0 160.8000030517578 -5.9618083533101425 -0.9016006669663117 -89.44699808641421 3.2299908842275747e-07 -2.9698814114318836e-08 1.9513685593232373 94.8704535890874 -7.197808589660772 170.95585223688778 1.445824307664852e-06 -1.1748216831945602e-06 30.793792425861604 3.1805546814635168e-15 8.827812596100317e-32 3.1805546814635168e-15 -96.75547232433641 -11.735647042386303 -173.794516802536 5.692809282777992e-06 9.741312803471661e-06 -26.541079180056688 -6.3611093629270335e-15 1.7655625192200634e-31 -3.1805546814635168e-15 -5.565078126376076 4.656198647916257 -20.178872343630673 3.182895727322338 -5.728372251680356 8.509932489760295 -7.951386703658792e-16 -7.951386703658792e-16 -2.2860236773019026e-15 8.401806510538233 -6.110634295734878 5.459055466522803 -9.512939403648094 14.90938257865431 23.18273245689749 9.939233379573489e-17 3.232841526892206e-34 3.7272125173400585e-16
33.099998474121094 -0.0 160.6999969482422 -5.961808308167862 -0.540994099839387 -89.44711372059395 4.263898810502368e-07 -5.523341983583308e-07 1.970248894420288 95.22778220536698 -6.210983476597921 170.97126433320912 1.6434792626636232e-06 -4.954535493020134e-07 30.484388600920965 3.1805546814635168e-15 1.7655625192200634e-31 6.3611093629270335e-15 -96.37403352263304 -11.519821553434076 -173.61617719569358 -2.3835028284113626e-06 1.8908217653658065e-06 -26.900973534883416 -3.1805546814635164e-15 0.0 0.0 -5.204283008210382 4.820098796925492 -20.605676945435516 3.1668519647954323 -5.904132771454178 8.665936169668285 0.0 0.0 1.51076347369517e-14 8.766688009851055 -5.957668691963548 6.0091324845123975 -9.382103889633457 14.846412144709541 23.137195035130112 -1.9878466759146977e-16 -2.6239897059941738e-33 1.5126270799538402e-15
33.099998474121094 -0.0 160.6999969482422 -6.1411128941466275 -0.5408149861888488 -89.42022573171835 -6.248094209413999e-08 1.7528598738221706e-07 1.742845053077223 95.33861307793723 -5.2682480701478465 170.78587942117912 -4.4389949439225706e-07 -6.819959037801103e-06 30.26927657961975 0.0 0.0 -3.1805546814635168e-15 -96.43658122984488 -11.456164659140398 -173.66000372155563 -3.5135073392377485e-06 2.8881369753201402e-06 -26.666811530312195 0.0 -6.361109362927035e-15 0.0 -5.2153008007418595 4.829969102256031 -20.380105346613725 3.0513492190647207 -5.635328308736596 8.294336708121236 7.951386703658791e-16 1.3448620751871577e-32 1.93815050901683e-15 8.762926076624346 -5.784830876953564 5.953276702266415 -9.382103889633457 14.846412144709541 23.137195035130112 -1.9878466759146977e-16 -2.6239897059941738e-33 1.5126270799538402e-15
33.099998474121094 -0.0 160.6999969482422 -6.1411128941466275 -0.5408149861888488 -89.42022573171835 -1.3558677648699144e-07 2.670495955455762e-07 1.735798363366466 95.38870487107489 -4.913854763256439 170.6061366051646 8.083859151404011e-07 2.8053257841645035e-06 30.167798033180738 -3.1805546814635168e-15 6.3611093629270335e-15 1.7655625192200634e-31 -96.27820301970479 -11.169701519977622 -173.67262756420806 1.9727051060853338e-06 5.87031453628826e-06 -26.450897834839765 3.1805546814635176e-15 -1.7655625192200634e-31 -6.361109362927035e-15 -5.383176593912607 4.830489057350817 -20.289734568777043 3.3191040317173406 -5.539462554387817 8.1892364803081 0.0 0.0 2.882377680076312e-15 8.599924351630202 -5.942259438246926 5.771155356814678 -9.119817551258285 14.946107073166882 23.203179811954385 9.93923337957349e-17 4.1218729467875625e-34 4.752195959608575e-16
33.099998474121094 -0.0 160.6999969482422 -6.141113035514955 -0.5408152569529904 -89.64074783848201 -3.32265872702432e-07 8.020917384316454e-07 1.7900339994629617 95.51410144027624 -5.1040594981719405 170.59577466570678 -1.294708222880797e-06 -1.5142652167271694e-06 29.99379328374149 -3.1805546814635168e-15 6.3611093629270335e-15 3.1805546814635168e-15 -96.44055315587018 -11.628410405274629 -173.67984983439356 2.691282002727119e-06 3.4932695046770364e-06 -26.66680133370131 0.0 0.0 3.1805546814635168e-15 -5.401690381392271 4.80976811318051 -20.411762352412815 3.3080869031135838 -5.402994298220947 7.970168040147636 -1.5902773407317582e-15 -3.6552661530727874e-32 2.6338968455869743e-15 8.78114215114343 -5.907595862362173 5.95729241227602 -9.290527768868943 14.952797507414138 23.06750019931993 0.0 0.0 2.112087093159367e-15
33.099998474121094 -0.0 160.6999969482422 -6.320290538263975 -0.5406305460652102 -89.63533829436668 1.6654997986644898e-07 -2.803174509910482e-07 1.769161664537617 95.55965687240136 -4.784658626444397 170.42024656360078 1.214234698155403e-07 9.509518874536303e-07 29.529226727219307 -3.180554681463516e-15 6.3611093629270335e-15 -9.54166404439055e-15 -96.30023383177979 -10.843947353576208 -173.52288472174152 5.53690719807064e-07 3.0113570803223907e-06 -26.574842693644356 3.180554681463516e-15 6.361109362927033e-15 6.361109362927033e-15 -5.2332968454652935 4.988956976969815 -20.62268325493739 3.3339928634916696 -5.522752333551782 8.253408640789585 -7.951386703658794e-16 2.3793713637926635e-32 -3.4290355159528547e-15 8.778955190577033 -5.7316150735138764 5.922744838718984 -9.290527768868943 14.952797507414138 23.06750019931993 0.0 0.0 2.112087093159367e-15
33.099998474121094 -0.0 160.6999969482422 -6.340191307311582 -0.5423256937354147 -89.63488200146067 2.3600613067039407e-07 -1.804963077395549e-07 1.786972203888218 95.67608031776352 -5.155284858401742 170.2235391066193 -2.2768035428494393e-06 2.12614629946249e-06 29.53732398546454 6.3611093629270335e-15 -6.3611093629270335e-15 3.531125038440127e-31 -96.37481333107912 -11.59548921667807 -173.47854119507963 -2.3749497664940543e-07 7.145388401060425e-07 -26.66187835417398 -9.54166404439055e-15 3.1805546814635168e-15 2.648343778830095e-31 -5.2345087123883065 4.840995910486152 -20.412138075363707 3.3281262729965033 -5.218178550787401 7.820903064682967 -7.951386703658792e-16 6.103604802772484e-32 -8.796221540922538e-15 8.618463173422214 -5.713575883119632 5.920578794022182 -8.99385325287669 14.929301230044356 22.922716301622877 1.9878466759146977e-16 2.273765207247518e-33 1.3107364019312539e-15
33.099998474121094 -0.0 160.6999969482422 -6.3401911309126575 -0.5423257622698401 -89.85394615784084 1.4299687525774476e-07 -5.858114364381558e-08 2.006039142813403 95.65904081875055 -5.131820792754517 170.23453968483614 2.192489710087324e-07 3.5318535081771684e-07 29.343471178697033 -3.531125038440127e-31 6.3611093629270335e-15 6.3611093629270335e-15 -96.38732299404495 -11.701345541601262 -173.47611854341298 3.3593394289285337e-06 9.040829694018295e-07 -26.58324487492933 -8.827812596100317e-32 -3.1805546814635168e-15 -3.1805546814635168e-15 -5.254050051598238 4.988813042907582 -20.74613954380714 3.3218674903620093 -5.386518594596157 8.031421943239616 7.951386703658792e-16 -7.951386703658792e-16 3.876301018033661e-15 8.64007085184944 -5.680707117784161 6.138241175626724 -8.99385325287669 14.929301230044356 22.922716301622877 1.9878466759146977e-16 2.273765207247518e-33 1.3107364019312539e-15
33.099998474121094 -0.10000000149011612 160.6999969482422 -6.4993502145190245 -0.5404410873836143 -89.8508704720258 -8.792982284251166e-07 3.0541452889959393e-07 1.9954838113276867 95.64385252922452 -5.23564087169976 170.25704165696402 6.529045968103587e-07 -4.73561710092893e-06 28.711658167330445 0.0 1.272221872585407e-14 0.0 -96.44204990691281 -11.292437206259951 -173.52284172607457 -2.3340987850413665e-06 9.296097668998268e-06 -26.51632738524631 -6.361109362927033e-15 -3.531125038440127e-31 6.361109362927033e-15 -5.2515093728946765 4.97987235510296 -20.54755189576808 3.198472257792066 -5.124547320371458 7.594255937147574 -7.951386703658792e-16 2.069018577211012e-33 -2.981770013872047e-16 8.798075103288921 -5.5219931012257675 6.152473564077281 -9.144298545399689 14.948259071844186 22.696081355213348 -3.975693351829396e-16 -9.939233379573489e-17 -4.289400405372184e-15
